<?xml version="1.0" encoding="UTF-8" standalone="no"?>
<!DOCTYPE svg PUBLIC "-//W3C//DTD SVG 1.1//EN"
 "http://www.w3.org/Graphics/SVG/1.1/DTD/svg11.dtd">
<!-- Generated by graphviz version 7.1.0 (20230121.1956)
 -->
<!-- Pages: 1 -->
<svg width="836pt" height="620pt"
 viewBox="0.00 0.00 836.00 620.00" xmlns="http://www.w3.org/2000/svg" xmlns:xlink="http://www.w3.org/1999/xlink">
<g id="graph0" class="graph" transform="scale(1 1) rotate(0) translate(4 616)">
<polygon fill="white" stroke="none" points="-4,4 -4,-616 832,-616 832,4 -4,4"/>
<!-- 0 -->
<g id="node1" class="node">
<title>0</title>
<ellipse fill="gray" stroke="black" cx="272" cy="-594" rx="27" ry="18"/>
<text text-anchor="middle" x="272" y="-589.8" font-family="Times,serif" font-size="14.00">0</text>
</g>
<!-- 1 -->
<g id="node2" class="node">
<title>1</title>
<ellipse fill="gray" stroke="black" cx="300" cy="-522" rx="27" ry="18"/>
<text text-anchor="middle" x="300" y="-517.8" font-family="Times,serif" font-size="14.00">1</text>
</g>
<!-- 0&#45;&gt;1 -->
<g id="edge1" class="edge">
<title>0&#45;&gt;1</title>
<path fill="none" stroke="black" d="M278.64,-576.41C283.1,-565.25 288.96,-550.6 293.41,-539.47"/>
</g>
<!-- 3 -->
<g id="node4" class="node">
<title>3</title>
<ellipse fill="gray" stroke="black" cx="245" cy="-450" rx="27" ry="18"/>
<text text-anchor="middle" x="245" y="-445.8" font-family="Times,serif" font-size="14.00">3</text>
</g>
<!-- 0&#45;&gt;3 -->
<g id="edge2" class="edge">
<title>0&#45;&gt;3</title>
<path fill="none" stroke="black" d="M268.74,-575.87C263.55,-548.58 253.47,-495.52 248.27,-468.19"/>
</g>
<!-- 13 -->
<g id="node14" class="node">
<title>13</title>
<ellipse fill="gray" stroke="black" cx="654" cy="-306" rx="27" ry="18"/>
<text text-anchor="middle" x="654" y="-301.8" font-family="Times,serif" font-size="14.00">13</text>
</g>
<!-- 0&#45;&gt;13 -->
<g id="edge3" class="edge">
<title>0&#45;&gt;13</title>
<path fill="none" stroke="black" d="M298.48,-589.76C358.4,-581.07 505.74,-551.94 590,-468 631.13,-427.03 646.62,-356.33 651.75,-324.01"/>
</g>
<!-- 14 -->
<g id="node15" class="node">
<title>14</title>
<ellipse fill="gray" stroke="black" cx="212" cy="-234" rx="27" ry="18"/>
<text text-anchor="middle" x="212" y="-229.8" font-family="Times,serif" font-size="14.00">14</text>
</g>
<!-- 0&#45;&gt;14 -->
<g id="edge4" class="edge">
<title>0&#45;&gt;14</title>
<path fill="none" stroke="black" d="M245.61,-589.59C184.42,-580.07 38,-547.23 38,-451 38,-451 38,-451 38,-377 38,-337.72 145.8,-272.3 191.7,-246.23"/>
</g>
<!-- 2 -->
<g id="node3" class="node">
<title>2</title>
<ellipse fill="gray" stroke="black" cx="376" cy="-450" rx="27" ry="18"/>
<text text-anchor="middle" x="376" y="-445.8" font-family="Times,serif" font-size="14.00">2</text>
</g>
<!-- 1&#45;&gt;2 -->
<g id="edge5" class="edge">
<title>1&#45;&gt;2</title>
<path fill="none" stroke="black" d="M315.38,-506.83C328.57,-494.69 347.46,-477.28 360.64,-465.14"/>
</g>
<!-- 8 -->
<g id="node9" class="node">
<title>8</title>
<ellipse fill="gray" stroke="black" cx="279" cy="-306" rx="27" ry="18"/>
<text text-anchor="middle" x="279" y="-301.8" font-family="Times,serif" font-size="14.00">8</text>
</g>
<!-- 1&#45;&gt;8 -->
<g id="edge6" class="edge">
<title>1&#45;&gt;8</title>
<path fill="none" stroke="black" d="M298.32,-503.85C294.38,-463.78 284.63,-364.38 280.69,-324.23"/>
</g>
<!-- 12 -->
<g id="node13" class="node">
<title>12</title>
<ellipse fill="gray" stroke="black" cx="726" cy="-306" rx="27" ry="18"/>
<text text-anchor="middle" x="726" y="-301.8" font-family="Times,serif" font-size="14.00">12</text>
</g>
<!-- 1&#45;&gt;12 -->
<g id="edge7" class="edge">
<title>1&#45;&gt;12</title>
<path fill="none" stroke="black" d="M326.79,-519.17C378.92,-514.94 497.03,-502.11 590,-468 650.19,-445.92 679.57,-449.43 715,-396 729.28,-374.46 729.67,-343.43 728.17,-324.28"/>
</g>
<!-- 1&#45;&gt;14 -->
<g id="edge8" class="edge">
<title>1&#45;&gt;14</title>
<path fill="none" stroke="black" d="M276.3,-513.13C255.52,-505.03 226.06,-490.4 209,-468 159.47,-402.94 144.57,-365.37 171,-288 176.11,-273.03 187.37,-259.01 196.79,-249.15"/>
</g>
<!-- 17 -->
<g id="node18" class="node">
<title>17</title>
<ellipse fill="gray" stroke="black" cx="614" cy="-90" rx="27" ry="18"/>
<text text-anchor="middle" x="614" y="-85.8" font-family="Times,serif" font-size="14.00">17</text>
</g>
<!-- 1&#45;&gt;17 -->
<g id="edge9" class="edge">
<title>1&#45;&gt;17</title>
<path fill="none" stroke="black" d="M272.85,-520.56C199,-517.78 0,-499.14 0,-379 0,-379 0,-379 0,-233 0,-110.73 468,-93.72 586.82,-91.37"/>
</g>
<!-- 19 -->
<g id="node20" class="node">
<title>19</title>
<ellipse fill="gray" stroke="red" cx="764" cy="-18" rx="27" ry="18"/>
<text text-anchor="middle" x="764" y="-13.8" font-family="Times,serif" font-size="14.00">19</text>
</g>
<!-- 1&#45;&gt;19 -->
<g id="edge10" class="edge">
<title>1&#45;&gt;19</title>
<path fill="none" stroke="black" d="M327.31,-521.81C388.17,-522.58 538.38,-518.72 650,-468 747.11,-423.87 828,-413.67 828,-307 828,-307 828,-307 828,-161 828,-110.97 794.58,-59.09 776.04,-34.17"/>
</g>
<!-- 5 -->
<g id="node6" class="node">
<title>5</title>
<ellipse fill="gray" stroke="black" cx="245" cy="-378" rx="27" ry="18"/>
<text text-anchor="middle" x="245" y="-373.8" font-family="Times,serif" font-size="14.00">5</text>
</g>
<!-- 2&#45;&gt;5 -->
<g id="edge11" class="edge">
<title>2&#45;&gt;5</title>
<path fill="none" stroke="black" d="M355.24,-437.91C330.71,-424.8 290.15,-403.12 265.66,-390.04"/>
</g>
<!-- 2&#45;&gt;8 -->
<g id="edge12" class="edge">
<title>2&#45;&gt;8</title>
<path fill="none" stroke="black" d="M365.25,-433.26C346.6,-405.97 308.48,-350.15 289.8,-322.81"/>
</g>
<!-- 10 -->
<g id="node11" class="node">
<title>10</title>
<ellipse fill="gray" stroke="black" cx="455" cy="-234" rx="27" ry="18"/>
<text text-anchor="middle" x="455" y="-229.8" font-family="Times,serif" font-size="14.00">10</text>
</g>
<!-- 2&#45;&gt;10 -->
<g id="edge13" class="edge">
<title>2&#45;&gt;10</title>
<path fill="none" stroke="black" d="M390.68,-434.5C411.53,-412.76 448.75,-369.41 463,-324 470.62,-299.72 465.19,-270.03 460.31,-251.82"/>
</g>
<!-- 2&#45;&gt;12 -->
<g id="edge14" class="edge">
<title>2&#45;&gt;12</title>
<path fill="none" stroke="black" d="M402.69,-446.64C447.28,-441.91 538.9,-428.74 609,-396 650.16,-376.77 690.65,-341.26 711.5,-321.4"/>
</g>
<!-- 2&#45;&gt;13 -->
<g id="edge15" class="edge">
<title>2&#45;&gt;13</title>
<path fill="none" stroke="black" d="M402.88,-446.88C443.22,-442.64 520.59,-430.36 576,-396 606.21,-377.27 631.21,-343.21 644.24,-323.09"/>
</g>
<!-- 16 -->
<g id="node17" class="node">
<title>16</title>
<ellipse fill="gray" stroke="black" cx="513" cy="-162" rx="27" ry="18"/>
<text text-anchor="middle" x="513" y="-157.8" font-family="Times,serif" font-size="14.00">16</text>
</g>
<!-- 2&#45;&gt;16 -->
<g id="edge16" class="edge">
<title>2&#45;&gt;16</title>
<path fill="none" stroke="black" d="M403.19,-449.43C441.62,-448.39 510.76,-440.06 543,-396 592.26,-328.69 543.67,-220.24 522.13,-179.32"/>
</g>
<!-- 4 -->
<g id="node5" class="node">
<title>4</title>
<ellipse fill="gray" stroke="black" cx="207" cy="-306" rx="27" ry="18"/>
<text text-anchor="middle" x="207" y="-301.8" font-family="Times,serif" font-size="14.00">4</text>
</g>
<!-- 3&#45;&gt;4 -->
<g id="edge17" class="edge">
<title>3&#45;&gt;4</title>
<path fill="none" stroke="black" d="M229.06,-434.99C219.19,-425.2 207.39,-411.19 202,-396 193.52,-372.08 197.95,-342.28 202.24,-323.95"/>
</g>
<!-- 3&#45;&gt;5 -->
<g id="edge18" class="edge">
<title>3&#45;&gt;5</title>
<path fill="none" stroke="black" d="M245,-431.7C245,-420.85 245,-406.92 245,-396.1"/>
</g>
<!-- 3&#45;&gt;8 -->
<g id="edge19" class="edge">
<title>3&#45;&gt;8</title>
<path fill="none" stroke="black" d="M231.27,-434.21C216.4,-416.29 196.39,-385.37 209,-360 218.91,-340.07 240.28,-325.64 256.82,-316.91"/>
</g>
<!-- 11 -->
<g id="node12" class="node">
<title>11</title>
<ellipse fill="gray" stroke="black" cx="507" cy="-378" rx="27" ry="18"/>
<text text-anchor="middle" x="507" y="-373.8" font-family="Times,serif" font-size="14.00">11</text>
</g>
<!-- 3&#45;&gt;11 -->
<g id="edge20" class="edge">
<title>3&#45;&gt;11</title>
<path fill="none" stroke="black" d="M270.89,-444.17C312.54,-436.1 396.77,-418.5 466,-396 472.3,-393.95 479,-391.36 485.11,-388.82"/>
</g>
<!-- 15 -->
<g id="node16" class="node">
<title>15</title>
<ellipse fill="gray" stroke="black" cx="176" cy="-162" rx="27" ry="18"/>
<text text-anchor="middle" x="176" y="-157.8" font-family="Times,serif" font-size="14.00">15</text>
</g>
<!-- 3&#45;&gt;15 -->
<g id="edge21" class="edge">
<title>3&#45;&gt;15</title>
<path fill="none" stroke="black" d="M229.62,-435.12C198.03,-405.37 126.84,-331.65 104,-252 99.59,-236.62 96.78,-230.28 104,-216 114.3,-195.64 136.51,-181.19 153.56,-172.57"/>
</g>
<!-- 18 -->
<g id="node19" class="node">
<title>18</title>
<ellipse fill="gray" stroke="black" cx="595" cy="-234" rx="27" ry="18"/>
<text text-anchor="middle" x="595" y="-229.8" font-family="Times,serif" font-size="14.00">18</text>
</g>
<!-- 3&#45;&gt;18 -->
<g id="edge22" class="edge">
<title>3&#45;&gt;18</title>
<path fill="none" stroke="black" d="M265.43,-437.94C304.37,-416.7 391.71,-368.39 463,-324 504.53,-298.14 551.73,-265.49 576.91,-247.81"/>
</g>
<!-- 6 -->
<g id="node7" class="node">
<title>6</title>
<ellipse fill="gray" stroke="black" cx="140" cy="-234" rx="27" ry="18"/>
<text text-anchor="middle" x="140" y="-229.8" font-family="Times,serif" font-size="14.00">6</text>
</g>
<!-- 4&#45;&gt;6 -->
<g id="edge23" class="edge">
<title>4&#45;&gt;6</title>
<path fill="none" stroke="black" d="M193.12,-290.5C181.62,-278.48 165.36,-261.49 153.86,-249.49"/>
</g>
<!-- 4&#45;&gt;14 -->
<g id="edge24" class="edge">
<title>4&#45;&gt;14</title>
<path fill="none" stroke="black" d="M208.24,-287.7C209.01,-276.85 210.01,-262.92 210.78,-252.1"/>
</g>
<!-- 4&#45;&gt;18 -->
<g id="edge25" class="edge">
<title>4&#45;&gt;18</title>
<path fill="none" stroke="black" d="M227.52,-294.03C232.48,-291.74 237.84,-289.56 243,-288 349.64,-255.87 380.93,-268.98 491,-252 517.58,-247.9 547.93,-242.9 568.95,-239.39"/>
</g>
<!-- 5&#45;&gt;6 -->
<g id="edge26" class="edge">
<title>5&#45;&gt;6</title>
<path fill="none" stroke="black" d="M223.75,-366.47C207.25,-357.32 184.91,-342.6 171,-324 154.73,-302.25 146.53,-271.29 142.77,-252.2"/>
</g>
<!-- 5&#45;&gt;8 -->
<g id="edge27" class="edge">
<title>5&#45;&gt;8</title>
<path fill="none" stroke="black" d="M253.06,-360.41C258.48,-349.25 265.59,-334.6 271,-323.47"/>
</g>
<!-- 6&#45;&gt;15 -->
<g id="edge28" class="edge">
<title>6&#45;&gt;15</title>
<path fill="none" stroke="black" d="M148.35,-216.76C154.17,-205.46 161.89,-190.44 167.7,-179.15"/>
</g>
<!-- 7 -->
<g id="node8" class="node">
<title>7</title>
<ellipse fill="gray" stroke="black" cx="554" cy="-450" rx="27" ry="18"/>
<text text-anchor="middle" x="554" y="-445.8" font-family="Times,serif" font-size="14.00">7</text>
</g>
<!-- 7&#45;&gt;11 -->
<g id="edge29" class="edge">
<title>7&#45;&gt;11</title>
<path fill="none" stroke="black" d="M543.33,-433.12C535.64,-421.66 525.3,-406.26 517.62,-394.82"/>
</g>
<!-- 7&#45;&gt;12 -->
<g id="edge30" class="edge">
<title>7&#45;&gt;12</title>
<path fill="none" stroke="black" d="M580.42,-445.12C610.6,-439.39 659.71,-425.91 690,-396 709.93,-376.33 719.2,-344.15 723.23,-324.35"/>
</g>
<!-- 7&#45;&gt;14 -->
<g id="edge31" class="edge">
<title>7&#45;&gt;14</title>
<path fill="none" stroke="black" d="M534.75,-436.99C517.84,-426.38 492.64,-410.39 471,-396 400.78,-349.3 387.31,-331.38 315,-288 287.75,-271.65 254.9,-255.3 233.75,-245.17"/>
</g>
<!-- 7&#45;&gt;18 -->
<g id="edge32" class="edge">
<title>7&#45;&gt;18</title>
<path fill="none" stroke="black" d="M562.15,-432.7C566.93,-422.42 572.68,-408.72 576,-396 589.37,-344.8 593.35,-281.97 594.52,-252.21"/>
</g>
<!-- 8&#45;&gt;10 -->
<g id="edge33" class="edge">
<title>8&#45;&gt;10</title>
<path fill="none" stroke="black" d="M301.65,-295.99C335.35,-282.59 398.35,-257.53 432.16,-244.08"/>
</g>
<!-- 8&#45;&gt;14 -->
<g id="edge34" class="edge">
<title>8&#45;&gt;14</title>
<path fill="none" stroke="black" d="M265.12,-290.5C253.62,-278.48 237.36,-261.49 225.86,-249.49"/>
</g>
<!-- 8&#45;&gt;15 -->
<g id="edge35" class="edge">
<title>8&#45;&gt;15</title>
<path fill="none" stroke="black" d="M276.18,-287.84C272.37,-268.79 264.13,-237.85 248,-216 234.54,-197.77 213.02,-183.09 197,-173.85"/>
</g>
<!-- 8&#45;&gt;17 -->
<g id="edge36" class="edge">
<title>8&#45;&gt;17</title>
<path fill="none" stroke="black" d="M293.2,-290.73C324.18,-260.27 401.13,-188.04 477,-144 513.94,-122.56 561.19,-106.48 589.45,-97.93"/>
</g>
<!-- 9 -->
<g id="node10" class="node">
<title>9</title>
<ellipse fill="gray" stroke="black" cx="427" cy="-306" rx="27" ry="18"/>
<text text-anchor="middle" x="427" y="-301.8" font-family="Times,serif" font-size="14.00">9</text>
</g>
<!-- 9&#45;&gt;10 -->
<g id="edge37" class="edge">
<title>9&#45;&gt;10</title>
<path fill="none" stroke="black" d="M433.64,-288.41C438.1,-277.25 443.96,-262.6 448.41,-251.47"/>
</g>
<!-- 10&#45;&gt;16 -->
<g id="edge38" class="edge">
<title>10&#45;&gt;16</title>
<path fill="none" stroke="black" d="M467.59,-217.81C477.31,-206.07 490.72,-189.89 500.44,-178.16"/>
</g>
<!-- 11&#45;&gt;12 -->
<g id="edge39" class="edge">
<title>11&#45;&gt;12</title>
<path fill="none" stroke="black" d="M532.28,-371.04C567.97,-362.31 634.93,-344.83 690,-324 694.91,-322.14 700.08,-319.89 704.92,-317.64"/>
</g>
<!-- 11&#45;&gt;16 -->
<g id="edge40" class="edge">
<title>11&#45;&gt;16</title>
<path fill="none" stroke="black" d="M480.68,-373.27C452.97,-367.79 410.69,-354.64 391,-324 382.35,-310.54 388.05,-303.73 391,-288 397.33,-254.25 396.51,-241.95 419,-216 437.9,-194.2 468.07,-179.45 489.12,-171.15"/>
</g>
<!-- 12&#45;&gt;17 -->
<g id="edge41" class="edge">
<title>12&#45;&gt;17</title>
<path fill="none" stroke="black" d="M719.82,-288.45C708.41,-258.63 682.48,-194.31 653,-144 645.15,-130.6 634.63,-116.47 626.5,-106.18"/>
</g>
<!-- 12&#45;&gt;18 -->
<g id="edge42" class="edge">
<title>12&#45;&gt;18</title>
<path fill="none" stroke="black" d="M705.24,-293.91C680.71,-280.8 640.15,-259.12 615.66,-246.04"/>
</g>
<!-- 12&#45;&gt;19 -->
<g id="edge43" class="edge">
<title>12&#45;&gt;19</title>
<path fill="none" stroke="black" d="M728.26,-287.97C735.01,-237.22 754.91,-87.41 761.7,-36.31"/>
</g>
<!-- 13&#45;&gt;16 -->
<g id="edge44" class="edge">
<title>13&#45;&gt;16</title>
<path fill="none" stroke="black" d="M653.82,-287.59C652.74,-268.04 648.19,-236.37 631,-216 607.4,-188.02 566.01,-174.18 539.06,-167.82"/>
</g>
<!-- 13&#45;&gt;17 -->
<g id="edge45" class="edge">
<title>13&#45;&gt;17</title>
<path fill="none" stroke="black" d="M655.28,-287.81C656.27,-269.8 656.91,-240.73 653,-216 646.68,-176.03 630.29,-131.21 620.9,-107.61"/>
</g>
<!-- 13&#45;&gt;18 -->
<g id="edge46" class="edge">
<title>13&#45;&gt;18</title>
<path fill="none" stroke="black" d="M641.2,-289.81C631.3,-278.07 617.67,-261.89 607.78,-250.16"/>
</g>
<!-- 14&#45;&gt;15 -->
<g id="edge47" class="edge">
<title>14&#45;&gt;15</title>
<path fill="none" stroke="black" d="M203.65,-216.76C197.83,-205.46 190.11,-190.44 184.3,-179.15"/>
</g>
<!-- 14&#45;&gt;16 -->
<g id="edge48" class="edge">
<title>14&#45;&gt;16</title>
<path fill="none" stroke="black" d="M237.4,-227.09C294.24,-213.87 431.1,-182.05 487.77,-168.87"/>
</g>
<!-- 16&#45;&gt;17 -->
<g id="edge49" class="edge">
<title>16&#45;&gt;17</title>
<path fill="none" stroke="black" d="M531.06,-148.49C549.33,-135.82 577.42,-116.35 595.76,-103.64"/>
</g>
<!-- 17&#45;&gt;19 -->
<g id="edge50" class="edge">
<title>17&#45;&gt;19</title>
<path fill="none" stroke="black" d="M635.81,-78.82C664.25,-65.55 713.71,-42.47 742.16,-29.19"/>
</g>
</g>
</svg>
