<?xml version="1.0" encoding="UTF-8" standalone="no"?>
<!DOCTYPE svg PUBLIC "-//W3C//DTD SVG 1.1//EN"
 "http://www.w3.org/Graphics/SVG/1.1/DTD/svg11.dtd">
<!-- Generated by graphviz version 7.1.0 (20230121.1956)
 -->
<!-- Pages: 1 -->
<svg width="953pt" height="476pt"
 viewBox="0.00 0.00 953.24 476.00" xmlns="http://www.w3.org/2000/svg" xmlns:xlink="http://www.w3.org/1999/xlink">
<g id="graph0" class="graph" transform="scale(1 1) rotate(0) translate(4 472)">
<polygon fill="white" stroke="none" points="-4,4 -4,-472 949.24,-472 949.24,4 -4,4"/>
<!-- 0 -->
<g id="node1" class="node">
<title>0</title>
<ellipse fill="gray" stroke="black" cx="670.24" cy="-450" rx="27" ry="18"/>
<text text-anchor="middle" x="670.24" y="-445.8" font-family="Times,serif" font-size="14.00">0</text>
</g>
<!-- 3 -->
<g id="node4" class="node">
<title>3</title>
<ellipse fill="gray" stroke="black" cx="670.24" cy="-378" rx="27" ry="18"/>
<text text-anchor="middle" x="670.24" y="-373.8" font-family="Times,serif" font-size="14.00">3</text>
</g>
<!-- 0&#45;&gt;3 -->
<g id="edge1" class="edge">
<title>0&#45;&gt;3</title>
<path fill="none" stroke="black" d="M670.24,-431.7C670.24,-420.85 670.24,-406.92 670.24,-396.1"/>
</g>
<!-- 5 -->
<g id="node6" class="node">
<title>5</title>
<ellipse fill="gray" stroke="black" cx="412.24" cy="-378" rx="27" ry="18"/>
<text text-anchor="middle" x="412.24" y="-373.8" font-family="Times,serif" font-size="14.00">5</text>
</g>
<!-- 0&#45;&gt;5 -->
<g id="edge2" class="edge">
<title>0&#45;&gt;5</title>
<path fill="none" stroke="black" d="M644.1,-444.58C602.08,-437.06 517.22,-420.23 448.24,-396 443.28,-394.26 438.1,-392.05 433.25,-389.81"/>
</g>
<!-- 8 -->
<g id="node9" class="node">
<title>8</title>
<ellipse fill="gray" stroke="black" cx="852.24" cy="-378" rx="27" ry="18"/>
<text text-anchor="middle" x="852.24" y="-373.8" font-family="Times,serif" font-size="14.00">8</text>
</g>
<!-- 0&#45;&gt;8 -->
<g id="edge3" class="edge">
<title>0&#45;&gt;8</title>
<path fill="none" stroke="black" d="M693.29,-440.61C721.28,-430.35 769.89,-412.34 811.24,-396 817.26,-393.62 823.74,-390.97 829.74,-388.49"/>
</g>
<!-- 9 -->
<g id="node10" class="node">
<title>9</title>
<ellipse fill="gray" stroke="black" cx="734.24" cy="-306" rx="27" ry="18"/>
<text text-anchor="middle" x="734.24" y="-301.8" font-family="Times,serif" font-size="14.00">9</text>
</g>
<!-- 0&#45;&gt;9 -->
<g id="edge4" class="edge">
<title>0&#45;&gt;9</title>
<path fill="none" stroke="black" d="M697.07,-446.53C749.98,-441.06 864.71,-425.93 888.24,-396 926.02,-347.93 813.24,-320.98 760.19,-311.23"/>
</g>
<!-- 11 -->
<g id="node12" class="node">
<title>11</title>
<ellipse fill="gray" stroke="black" cx="514.24" cy="-306" rx="27" ry="18"/>
<text text-anchor="middle" x="514.24" y="-301.8" font-family="Times,serif" font-size="14.00">11</text>
</g>
<!-- 0&#45;&gt;11 -->
<g id="edge5" class="edge">
<title>0&#45;&gt;11</title>
<path fill="none" stroke="black" d="M654.36,-435.15C642.21,-424.52 625.08,-409.43 610.24,-396 581.42,-369.92 548.27,-338.97 529.43,-321.3"/>
</g>
<!-- 12 -->
<g id="node13" class="node">
<title>12</title>
<ellipse fill="gray" stroke="black" cx="586.24" cy="-306" rx="27" ry="18"/>
<text text-anchor="middle" x="586.24" y="-301.8" font-family="Times,serif" font-size="14.00">12</text>
</g>
<!-- 0&#45;&gt;12 -->
<g id="edge6" class="edge">
<title>0&#45;&gt;12</title>
<path fill="none" stroke="black" d="M659.1,-433.51C651.76,-423.08 642.09,-408.93 634.24,-396 619.21,-371.24 603.61,-341.42 594.42,-323.36"/>
</g>
<!-- 16 -->
<g id="node17" class="node">
<title>16</title>
<ellipse fill="gray" stroke="black" cx="531.24" cy="-162" rx="27" ry="18"/>
<text text-anchor="middle" x="531.24" y="-157.8" font-family="Times,serif" font-size="14.00">16</text>
</g>
<!-- 0&#45;&gt;16 -->
<g id="edge7" class="edge">
<title>0&#45;&gt;16</title>
<path fill="none" stroke="black" d="M695.99,-444.43C721.85,-438.31 760.34,-424.72 778.24,-396 789.2,-378.41 779.87,-302.08 770.24,-288 718.83,-212.82 607.58,-179.72 557.09,-168.16"/>
</g>
<!-- 17 -->
<g id="node18" class="node">
<title>17</title>
<ellipse fill="gray" stroke="black" cx="248.24" cy="-90" rx="27" ry="18"/>
<text text-anchor="middle" x="248.24" y="-85.8" font-family="Times,serif" font-size="14.00">17</text>
</g>
<!-- 0&#45;&gt;17 -->
<g id="edge8" class="edge">
<title>0&#45;&gt;17</title>
<path fill="none" stroke="black" d="M642.88,-449.55C588.66,-449.51 465.13,-443.7 376.24,-396 267.95,-337.89 251.26,-163.8 248.7,-108.24"/>
</g>
<!-- 18 -->
<g id="node19" class="node">
<title>18</title>
<ellipse fill="gray" stroke="black" cx="476.24" cy="-18" rx="27" ry="18"/>
<text text-anchor="middle" x="476.24" y="-13.8" font-family="Times,serif" font-size="14.00">18</text>
</g>
<!-- 0&#45;&gt;18 -->
<g id="edge9" class="edge">
<title>0&#45;&gt;18</title>
<path fill="none" stroke="black" d="M696.85,-446.01C751.37,-439.4 873.34,-422.07 905.24,-396 938.82,-368.56 945.24,-350.37 945.24,-307 945.24,-307 945.24,-307 945.24,-161 945.24,-67.95 602.8,-30.24 503.14,-21.23"/>
</g>
<!-- 1 -->
<g id="node2" class="node">
<title>1</title>
<ellipse fill="gray" stroke="black" cx="742.24" cy="-378" rx="27" ry="18"/>
<text text-anchor="middle" x="742.24" y="-373.8" font-family="Times,serif" font-size="14.00">1</text>
</g>
<!-- 1&#45;&gt;9 -->
<g id="edge10" class="edge">
<title>1&#45;&gt;9</title>
<path fill="none" stroke="black" d="M740.26,-359.7C739.02,-348.85 737.43,-334.92 736.19,-324.1"/>
</g>
<!-- 1&#45;&gt;12 -->
<g id="edge11" class="edge">
<title>1&#45;&gt;12</title>
<path fill="none" stroke="black" d="M720.58,-366.66C715.86,-364.44 710.89,-362.13 706.24,-360 672.27,-344.48 632.57,-327.09 608.43,-316.6"/>
</g>
<!-- 19 -->
<g id="node20" class="node">
<title>19</title>
<ellipse fill="gray" stroke="black" cx="419.24" cy="-90" rx="27" ry="18"/>
<text text-anchor="middle" x="419.24" y="-85.8" font-family="Times,serif" font-size="14.00">19</text>
</g>
<!-- 1&#45;&gt;19 -->
<g id="edge12" class="edge">
<title>1&#45;&gt;19</title>
<path fill="none" stroke="black" d="M754.1,-361.58C766.58,-343.32 782.81,-312.32 770.24,-288 703.76,-159.33 514.87,-109.88 445.34,-95.71"/>
</g>
<!-- 2 -->
<g id="node3" class="node">
<title>2</title>
<ellipse fill="gray" stroke="black" cx="357.24" cy="-450" rx="27" ry="18"/>
<text text-anchor="middle" x="357.24" y="-445.8" font-family="Times,serif" font-size="14.00">2</text>
</g>
<!-- 2&#45;&gt;5 -->
<g id="edge13" class="edge">
<title>2&#45;&gt;5</title>
<path fill="none" stroke="black" d="M369.45,-433.46C378.56,-421.86 390.96,-406.08 400.07,-394.49"/>
</g>
<!-- 2&#45;&gt;12 -->
<g id="edge14" class="edge">
<title>2&#45;&gt;12</title>
<path fill="none" stroke="black" d="M383.76,-445.48C418.01,-439.85 478.21,-426.23 520.24,-396 546.94,-376.79 567.42,-343.53 578.07,-323.57"/>
</g>
<!-- 14 -->
<g id="node15" class="node">
<title>14</title>
<ellipse fill="gray" stroke="black" cx="193.24" cy="-162" rx="27" ry="18"/>
<text text-anchor="middle" x="193.24" y="-157.8" font-family="Times,serif" font-size="14.00">14</text>
</g>
<!-- 2&#45;&gt;14 -->
<g id="edge15" class="edge">
<title>2&#45;&gt;14</title>
<path fill="none" stroke="black" d="M334.67,-439.44C295.82,-421.94 215.99,-381.21 169.24,-324 136.95,-284.48 108.7,-262.27 130.24,-216 138.93,-197.34 157.77,-182.9 172.6,-173.84"/>
</g>
<!-- 15 -->
<g id="node16" class="node">
<title>15</title>
<ellipse fill="gray" stroke="black" cx="138.24" cy="-90" rx="27" ry="18"/>
<text text-anchor="middle" x="138.24" y="-85.8" font-family="Times,serif" font-size="14.00">15</text>
</g>
<!-- 2&#45;&gt;15 -->
<g id="edge16" class="edge">
<title>2&#45;&gt;15</title>
<path fill="none" stroke="black" d="M331.27,-444.46C298.58,-437.83 241.72,-423.24 200.24,-396 164.2,-372.34 161.04,-358.54 135.24,-324 81.96,-252.65 2.86,-221.2 47.24,-144 61.36,-119.43 91.74,-105.18 113.52,-97.77"/>
</g>
<!-- 2&#45;&gt;19 -->
<g id="edge17" class="edge">
<title>2&#45;&gt;19</title>
<path fill="none" stroke="black" d="M360.23,-431.73C370.73,-371.12 405.83,-168.44 416.28,-108.09"/>
</g>
<!-- 3&#45;&gt;9 -->
<g id="edge18" class="edge">
<title>3&#45;&gt;9</title>
<path fill="none" stroke="black" d="M683.81,-362.15C694.67,-350.28 709.83,-333.7 720.69,-321.82"/>
</g>
<!-- 3&#45;&gt;11 -->
<g id="edge19" class="edge">
<title>3&#45;&gt;11</title>
<path fill="none" stroke="black" d="M648.05,-367.4C623.91,-356.91 584.21,-339.52 550.24,-324 545.59,-321.87 540.62,-319.56 535.9,-317.34"/>
</g>
<!-- 3&#45;&gt;12 -->
<g id="edge20" class="edge">
<title>3&#45;&gt;12</title>
<path fill="none" stroke="black" d="M654.04,-363.5C639.26,-351.19 617.53,-333.07 602.67,-320.69"/>
</g>
<!-- 13 -->
<g id="node14" class="node">
<title>13</title>
<ellipse fill="gray" stroke="black" cx="438.24" cy="-234" rx="27" ry="18"/>
<text text-anchor="middle" x="438.24" y="-229.8" font-family="Times,serif" font-size="14.00">13</text>
</g>
<!-- 3&#45;&gt;13 -->
<g id="edge21" class="edge">
<title>3&#45;&gt;13</title>
<path fill="none" stroke="black" d="M665.5,-359.96C659.02,-339.83 645.48,-306.73 622.24,-288 575.78,-250.56 504.01,-239.56 465.27,-236.34"/>
</g>
<!-- 3&#45;&gt;18 -->
<g id="edge22" class="edge">
<title>3&#45;&gt;18</title>
<path fill="none" stroke="black" d="M667.52,-359.8C658.87,-309.9 627.81,-162.9 550.24,-72 535.16,-54.33 513,-39.48 496.86,-30.03"/>
</g>
<!-- 4 -->
<g id="node5" class="node">
<title>4</title>
<ellipse fill="gray" stroke="black" cx="56.24" cy="-450" rx="27" ry="18"/>
<text text-anchor="middle" x="56.24" y="-445.8" font-family="Times,serif" font-size="14.00">4</text>
</g>
<!-- 4&#45;&gt;5 -->
<g id="edge23" class="edge">
<title>4&#45;&gt;5</title>
<path fill="none" stroke="black" d="M82.13,-443.91C147.89,-430.98 320.79,-396.98 386.45,-384.07"/>
</g>
<!-- 4&#45;&gt;17 -->
<g id="edge24" class="edge">
<title>4&#45;&gt;17</title>
<path fill="none" stroke="black" d="M37.83,-436.3C25.77,-426.79 11.02,-412.59 4.24,-396 -1.81,-381.19 -0.61,-375.25 4.24,-360 22.08,-303.95 113.84,-183.7 157.24,-144 177.88,-125.12 206.35,-109.88 225.92,-100.67"/>
</g>
<!-- 4&#45;&gt;18 -->
<g id="edge25" class="edge">
<title>4&#45;&gt;18</title>
<path fill="none" stroke="black" d="M51.03,-432.22C32.55,-368.99 -22.38,-144.95 102.24,-72 161.38,-37.38 373.23,-23.96 449.03,-20.2"/>
</g>
<!-- 5&#45;&gt;12 -->
<g id="edge26" class="edge">
<title>5&#45;&gt;12</title>
<path fill="none" stroke="black" d="M433.4,-366.57C438.23,-364.31 443.38,-362 448.24,-360 492.7,-341.71 505.78,-342.29 550.24,-324 555.1,-322 560.24,-319.69 565.08,-317.43"/>
</g>
<!-- 5&#45;&gt;13 -->
<g id="edge27" class="edge">
<title>5&#45;&gt;13</title>
<path fill="none" stroke="black" d="M415.38,-359.87C420.37,-332.58 430.09,-279.52 435.09,-252.19"/>
</g>
<!-- 5&#45;&gt;14 -->
<g id="edge28" class="edge">
<title>5&#45;&gt;14</title>
<path fill="none" stroke="black" d="M385.6,-374.1C328.6,-366.28 195.51,-339.1 140.24,-252 131.67,-238.49 134.12,-230.78 140.24,-216 147.21,-199.17 162.41,-184.9 174.75,-175.42"/>
</g>
<!-- 5&#45;&gt;16 -->
<g id="edge29" class="edge">
<title>5&#45;&gt;16</title>
<path fill="none" stroke="black" d="M421.38,-360.56C443.58,-320.63 500.16,-218.89 522.23,-179.2"/>
</g>
<!-- 5&#45;&gt;17 -->
<g id="edge30" class="edge">
<title>5&#45;&gt;17</title>
<path fill="none" stroke="black" d="M390.1,-367.45C371.96,-358.6 346.83,-343.81 331.24,-324 303.49,-288.74 265.73,-155.75 252.8,-108.11"/>
</g>
<!-- 5&#45;&gt;18 -->
<g id="edge31" class="edge">
<title>5&#45;&gt;18</title>
<path fill="none" stroke="black" d="M404.33,-360.35C382.59,-311.95 327.12,-168.58 383.24,-72 397.81,-46.93 429.15,-32.74 451.42,-25.47"/>
</g>
<!-- 6 -->
<g id="node7" class="node">
<title>6</title>
<ellipse fill="gray" stroke="black" cx="484.24" cy="-378" rx="27" ry="18"/>
<text text-anchor="middle" x="484.24" y="-373.8" font-family="Times,serif" font-size="14.00">6</text>
</g>
<!-- 6&#45;&gt;11 -->
<g id="edge32" class="edge">
<title>6&#45;&gt;11</title>
<path fill="none" stroke="black" d="M491.35,-360.41C496.13,-349.25 502.41,-334.6 507.18,-323.47"/>
</g>
<!-- 7 -->
<g id="node8" class="node">
<title>7</title>
<ellipse fill="gray" stroke="red" cx="83.24" cy="-162" rx="27" ry="18"/>
<text text-anchor="middle" x="83.24" y="-157.8" font-family="Times,serif" font-size="14.00">7</text>
</g>
<!-- 7&#45;&gt;17 -->
<g id="edge33" class="edge">
<title>7&#45;&gt;17</title>
<path fill="none" stroke="red" d="M105.49,-151.56C133.79,-139.56 182.86,-118.73 215.45,-104.91"/>
<polygon fill="red" stroke="red" points="216.58,-108.23 224.42,-101.11 213.85,-101.79 216.58,-108.23"/>
</g>
<!-- 7&#45;&gt;18 -->
<g id="edge34" class="edge">
<title>7&#45;&gt;18</title>
<path fill="none" stroke="red" d="M104.33,-150.5C123.35,-140.63 151.7,-124.88 174.24,-108 192.86,-94.05 191.59,-82.71 212.24,-72 285.94,-33.8 384.41,-23.09 437.84,-20.12"/>
<polygon fill="red" stroke="red" points="437.82,-23.62 447.64,-19.64 437.48,-16.63 437.82,-23.62"/>
</g>
<!-- 9&#45;&gt;16 -->
<g id="edge35" class="edge">
<title>9&#45;&gt;16</title>
<path fill="none" stroke="black" d="M708.27,-300.14C678.1,-293.45 628.03,-279.05 593.24,-252 567.97,-232.35 548.92,-199.55 538.97,-179.73"/>
</g>
<!-- 10 -->
<g id="node11" class="node">
<title>10</title>
<ellipse fill="gray" stroke="black" cx="176.24" cy="-234" rx="27" ry="18"/>
<text text-anchor="middle" x="176.24" y="-229.8" font-family="Times,serif" font-size="14.00">10</text>
</g>
<!-- 10&#45;&gt;14 -->
<g id="edge36" class="edge">
<title>10&#45;&gt;14</title>
<path fill="none" stroke="black" d="M180.35,-216.05C182.99,-205.21 186.39,-191.18 189.04,-180.28"/>
</g>
<!-- 11&#45;&gt;14 -->
<g id="edge37" class="edge">
<title>11&#45;&gt;14</title>
<path fill="none" stroke="black" d="M492.18,-295.24C433.53,-269.3 274.28,-198.85 215.46,-172.83"/>
</g>
<!-- 11&#45;&gt;16 -->
<g id="edge38" class="edge">
<title>11&#45;&gt;16</title>
<path fill="none" stroke="black" d="M516.32,-287.59C519.6,-260.19 525.93,-207.32 529.19,-180.11"/>
</g>
<!-- 12&#45;&gt;13 -->
<g id="edge39" class="edge">
<title>12&#45;&gt;13</title>
<path fill="none" stroke="black" d="M564.72,-294.82C536.66,-281.55 487.86,-258.47 459.79,-245.19"/>
</g>
<!-- 12&#45;&gt;18 -->
<g id="edge40" class="edge">
<title>12&#45;&gt;18</title>
<path fill="none" stroke="black" d="M586.89,-287.91C587.46,-257.79 586.09,-193.74 567.24,-144 550.12,-98.82 512.08,-55.38 491.01,-33.56"/>
</g>
<!-- 13&#45;&gt;14 -->
<g id="edge41" class="edge">
<title>13&#45;&gt;14</title>
<path fill="none" stroke="black" d="M413.85,-226.03C367.01,-212.65 264.94,-183.49 217.89,-170.04"/>
</g>
<!-- 13&#45;&gt;16 -->
<g id="edge42" class="edge">
<title>13&#45;&gt;16</title>
<path fill="none" stroke="black" d="M455.73,-219.83C472.36,-207.32 497.22,-188.6 513.83,-176.11"/>
</g>
<!-- 13&#45;&gt;17 -->
<g id="edge43" class="edge">
<title>13&#45;&gt;17</title>
<path fill="none" stroke="black" d="M420.71,-219.9C384.51,-192.84 301.89,-131.1 265.73,-104.07"/>
</g>
<!-- 13&#45;&gt;18 -->
<g id="edge44" class="edge">
<title>13&#45;&gt;18</title>
<path fill="none" stroke="black" d="M441.28,-215.85C448.4,-175.78 466.05,-76.38 473.18,-36.23"/>
</g>
<!-- 13&#45;&gt;19 -->
<g id="edge45" class="edge">
<title>13&#45;&gt;19</title>
<path fill="none" stroke="black" d="M435.91,-215.59C432.24,-188.19 425.17,-135.32 421.53,-108.11"/>
</g>
<!-- 14&#45;&gt;15 -->
<g id="edge46" class="edge">
<title>14&#45;&gt;15</title>
<path fill="none" stroke="black" d="M181.03,-145.46C171.92,-133.86 159.52,-118.08 150.41,-106.49"/>
</g>
<!-- 14&#45;&gt;17 -->
<g id="edge47" class="edge">
<title>14&#45;&gt;17</title>
<path fill="none" stroke="black" d="M205.45,-145.46C214.56,-133.86 226.96,-118.08 236.07,-106.49"/>
</g>
<!-- 14&#45;&gt;19 -->
<g id="edge48" class="edge">
<title>14&#45;&gt;19</title>
<path fill="none" stroke="black" d="M217.43,-153.51C260.81,-140.07 351.38,-112.02 394.89,-98.54"/>
</g>
<!-- 15&#45;&gt;18 -->
<g id="edge49" class="edge">
<title>15&#45;&gt;18</title>
<path fill="none" stroke="black" d="M160.05,-78.93C166.17,-76.39 172.88,-73.86 179.24,-72 276.76,-43.45 397.04,-27.73 449.58,-21.8"/>
</g>
<!-- 16&#45;&gt;18 -->
<g id="edge50" class="edge">
<title>16&#45;&gt;18</title>
<path fill="none" stroke="black" d="M524.71,-144.15C514.13,-116.82 493.34,-63.14 482.76,-35.82"/>
</g>
</g>
</svg>
